<svg width="420" height="96" viewBox="0 0 420 96" fill="none" xmlns="http://www.w3.org/2000/svg" role="img" aria-labelledby="title desc">
  <title id="title">CampusWire logo</title>
  <desc id="desc">CampusWire wordmark with a campus chat-bubble icon.</desc>
  <g>
    <rect x="8" y="8" width="80" height="74" rx="22" fill="url(#paint0_linear)"/>
    <path d="M70 82L58 73H72C76.4183 73 80 69.4183 80 65V57L88 86L70 82Z" fill="#4F46E5"/>
    <path d="M24 46L48 35L72 46" stroke="white" stroke-width="6" stroke-linecap="round" stroke-linejoin="round"/>
    <path d="M31 49H65V70H55V57H41V70H31V49Z" fill="white"/>
    <path d="M48 35V23M48 23H62M48 23V17" stroke="white" stroke-width="5" stroke-linecap="round" stroke-linejoin="round"/>
    <path d="M25 50C23.1 44.8 23.5 38.9 26.4 33.9C30.7 26.4 38.9 22 48 22C57.1 22 65.3 26.4 69.6 33.9C72.5 38.9 72.9 44.8 71 50" stroke="white" stroke-width="4" stroke-linecap="round"/>
    <circle cx="27" cy="42" r="5" fill="white"/>
    <circle cx="34" cy="29" r="5" fill="white"/>
    <circle cx="48" cy="22" r="5" fill="white"/>
    <circle cx="62" cy="29" r="5" fill="white"/>
    <circle cx="69" cy="42" r="5" fill="white"/>
  </g>
  <text x="112" y="60" font-family="Inter, ui-sans-serif, system-ui, -apple-system, BlinkMacSystemFont, 'Segoe UI', sans-serif" font-size="40" font-weight="800" letter-spacing="-0.5" fill="#0F172A">Campus</text>
  <text x="275" y="60" font-family="Inter, ui-sans-serif, system-ui, -apple-system, BlinkMacSystemFont, 'Segoe UI', sans-serif" font-size="40" font-weight="800" letter-spacing="-0.5" fill="#4F46E5">Wire</text>
  <defs>
    <linearGradient id="paint0_linear" x1="14" y1="14" x2="82" y2="80" gradientUnits="userSpaceOnUse">
      <stop stop-color="#6366F1"/>
      <stop offset="1" stop-color="#4F46E5"/>
    </linearGradient>
  </defs>
</svg>
